HIERARCHY
ROOT Hips
{
	OFFSET 0.00000 0.00000 0.00000
	CHANNELS 6 Xposition Yposition Zposition Yrotation Zrotation Xrotation 
	JOINT Lumbar
	{
		OFFSET 0 0 0
		CHANNELS 3 Zrotation Xrotation Yrotation
		JOINT Neck
		{
			OFFSET 0.00 0.2701 0.00
			CHANNELS 3 Zrotation Xrotation Yrotation
			End Site
			{
				OFFSET 0.00 0.1379 0.00
			}
		}
		JOINT RightShoulder
		{
			OFFSET 0.0119 0.2289 0.1181
			CHANNELS 3 Zrotation Xrotation Yrotation
			JOINT RightElbow
			{
				OFFSET 0.00 -0.1475 0.00
				CHANNELS 2 Zrotation Yrotation
				JOINT RightWrist
				{
					OFFSET 0.00 -0.1605 0.00
					CHANNELS 2 Zrotation Xrotation
					End Site
					{
						OFFSET 0.0040 -0.1068 0.0006
					}
				}
			}
		}
		JOINT LeftShoulder
		{
			OFFSET 0.0119 0.2289 -0.1181
			CHANNELS 3 Zrotation Xrotation Yrotation
			JOINT LeftElbow
			{
				OFFSET 0.00 -0.1475 0.00
				CHANNELS 2 Zrotation Yrotation
				JOINT LeftWrist
				{
					OFFSET 0.00 -0.1605 0.00
					CHANNELS 2 Zrotation Xrotation
					End Site
					{
						OFFSET 0.0040 -0.1068 -0.0006
					}
				}
			}
		}
	}
	JOINT RightHip
	{
		OFFSET 0.0316 -0.0424 0.0458
		CHANNELS 3 Zrotation Xrotation Yrotation
		JOINT RightKnee
		{
			OFFSET 0.00 -0.2438 0.00
			CHANNELS 1 Zrotation
			JOINT RightAnkle
			{
				OFFSET 0.00 -0.2449 0.00
				CHANNELS 3 Zrotation Xrotation Yrotation
				End Site
				{
					OFFSET 0.1237 -0.0542 0.0051
				}
			}
		}
	}
	JOINT LeftHip
	{
		OFFSET 0.0316 -0.0424 -0.0458
		CHANNELS 3 Zrotation Xrotation Yrotation
		JOINT LeftKnee
		{
			OFFSET 0.00 -0.2438 0.00
			CHANNELS 1 Zrotation
			JOINT LeftAnkle
			{
				OFFSET 0.00 -0.2449 0.00
				CHANNELS 3 Zrotation Xrotation Yrotation
				End Site
				{
					OFFSET 0.1237 -0.0542 -0.0051
				}
			}
		}
	}
}
MOTION
Frames: 22
Frame Time: 0.02
0.21349 0.57326 0.34304 122.05138 0 -1.35484 2.45521 0.86719 -0.49141 -16.03291 -6.7597 -5.83173 169.88199 -168.4403 64.17126 5.32851 154.3812 85.31341 -22.9755 169.88198 137.46326 -64.17121 5.32853 -117.25532 85.31338 22.97468 17.55986 -4.7469 -2.66095 -19.98077 -3.8263 -0.57998 7.65981 -7.54685 -3.71697 1.44969 -7.02711 10.22118 6.46781 6.29774
0.21308 0.57337 0.34327 122.44322 0 -1.3886 2.63821 0.88143 -0.1823 -16.70729 -6.42099 -5.37553 169.88199 -165.03971 64.17127 5.32851 152.34868 85.31342 -22.9756 169.88198 137.08697 -64.17122 5.32853 -117.99234 85.31341 22.9747 17.44742 -4.86438 -3.26074 -19.92555 -3.91007 -0.64042 7.46726 -7.49899 -3.67525 1.2842 -7.08123 10.24547 6.39017 6.16326
0.21261 0.57344 0.34339 122.79954 0 -1.43801 2.86959 0.9086 0.21221 -17.49639 -6.0743 -4.8503 169.88199 -160.77719 64.17126 5.32851 150.00073 85.31341 -22.97548 169.88198 136.54303 -64.17122 5.32853 -118.78453 85.31332 22.97455 17.31046 -4.95179 -3.71866 -19.83594 -3.96231 -0.69528 7.30394 -7.44476 -3.63057 1.14209 -7.17419 10.31427 6.3663 6.08209
0.21216 0.57353 0.34356 123.16889 0 -1.48133 3.07972 0.93205 0.57339 -18.22834 -5.74085 -4.35583 169.88199 -156.93484 64.17126 5.32851 147.78046 85.31341 -22.97548 169.88198 136.04436 -64.17122 5.32853 -119.55774 85.31345 22.97471 17.18485 -5.05185 -4.238 -19.76195 -4.03019 -0.75063 7.13344 -7.39465 -3.58701 0.98865 -7.24793 10.35896 6.31855 5.97914
0.21173 0.57361 0.34373 123.55375 0 -1.52074 3.28703 0.94685 0.91159 -18.98446 -5.36549 -3.86207 169.88199 -152.96674 64.17126 5.32851 145.61001 85.31341 -22.97545 169.88198 135.67586 -64.17122 5.32853 -120.31072 85.31341 22.97466 17.05791 -5.15609 -4.77054 -19.68897 -4.09221 -0.81458 6.93566 -7.33927 -3.54359 0.83616 -7.3287 10.41929 6.26807 5.86556
0.21125 0.5737 0.34388 123.89732 0 -1.57176 3.51156 0.98224 1.31762 -19.716 -5.07591 -3.35168 169.88199 -149.05761 64.17126 5.32851 143.27565 85.31341 -22.97539 169.88198 134.99622 -64.17122 5.32853 -121.11417 85.31304 22.97406 16.92866 -5.24469 -5.24587 -19.60616 -4.15968 -0.85972 6.80075 -7.29313 -3.4995 0.68856 -7.4042 10.45808 6.23569 5.78615
0.21067 0.5738 0.34398 124.1313 0 -1.65214 3.77249 1.07516 1.89281 -20.35555 -5.02655 -2.80595 169.88199 -145.52896 64.17125 5.32851 140.46093 85.31341 -22.97527 169.88198 133.50398 -64.17122 5.32853 -122.07203 85.31418 22.97571 16.7918 -5.2955 -5.54784 -19.49422 -4.2422 -0.84922 6.85035 -7.27737 -3.45429 0.54187 -7.45186 10.42443 6.24628 5.79717
0.21006 0.57391 0.34407 124.32545 0 -1.74338 4.04895 1.18754 2.5325 -20.96521 -5.06361 -2.24724 169.88198 -142.09032 64.17124 5.32851 137.51269 85.31337 -22.97489 169.88198 131.70464 -64.17122 5.32853 -123.0701 85.3124 22.97306 16.65465 -5.33202 -5.80613 -19.37503 -4.33246 -0.82086 6.95913 -7.27063 -3.40867 0.40069 -7.49341 10.36804 6.27217 5.83912
0.20946 0.57402 0.34418 124.54008 0 -1.82894 4.31782 1.28857 3.14126 -21.5857 -5.06056 -1.69878 169.88198 -138.60523 64.17124 5.32852 134.69532 85.31342 -22.97494 169.88198 130.04094 -64.17122 5.32853 -124.03453 85.31311 22.97382 16.52254 -5.37626 -6.11615 -19.26596 -4.4245 -0.80394 7.02964 -7.25759 -3.36331 0.26178 -7.54025 10.32345 6.28724 5.86122
0.20885 0.57413 0.34425 124.74303 0 -1.91838 4.59059 1.40098 3.76109 -22.2222 -5.06131 -1.1295 169.88198 -135.10796 64.17123 5.32852 131.57042 85.31339 -22.97465 169.88198 128.38323 -64.17122 5.32853 -125.07819 85.3177 22.98098 16.36946 -5.414 -6.28534 -19.12779 -4.49407 -0.77281 7.14978 -7.25338 -3.31737 0.10384 -7.57817 10.27413 6.32068 5.90999
0.20826 0.57424 0.34438 124.96185 0 -2.00186 4.85836 1.4937 4.37046 -22.81631 -5.07409 -0.60146 169.88198 -131.67545 64.17122 5.32852 129.0586 85.31323 -22.97378 169.88198 126.64822 -64.17122 5.32853 -125.9501 85.30247 22.95807 16.25954 -5.46261 -6.74103 -19.04786 -4.61144 -0.76708 7.17941 -7.23327 -3.2728 -0.01388 -7.63226 10.22879 6.31856 5.90938
0.20778 0.5744 0.34468 125.22947 0 -2.06833 5.10771 1.53113 4.94883 -23.30383 -5.10511 -0.19028 169.88198 -128.34833 64.17123 5.32852 128.26871 85.31374 -22.97615 169.88198 124.72542 -64.1712 5.32854 -126.47461 85.32735 22.99217 16.27567 -5.5419 -7.98314 -19.14017 -4.86934 -0.83638 6.95134 -7.16498 -3.23043 -0.0184 -7.73584 10.19895 6.21634 5.76887
0.20732 0.57458 0.34505 125.51536 0 -2.12786 5.3514 1.54728 5.51157 -23.74853 -5.14427 0.17856 169.88198 -125.0986 64.17124 5.32852 128.09913 85.31296 -22.97306 169.88198 122.74598 -64.17117 5.32854 -126.80204 85.31462 22.97336 16.33418 -5.63331 -9.5176 -19.28979 -5.17307 -0.93182 6.62862 -7.08089 -3.18989 0.0166 -7.85494 10.17382 6.07722 5.57666
0.20685 0.57474 0.34539 125.79631 0 -2.1892 5.59797 1.57063 6.07196 -24.21019 -5.17555 0.56631 169.88198 -121.84979 64.17125 5.32851 127.65417 85.31327 -22.97438 169.88198 120.82516 -64.17115 5.32855 -127.12598 85.25762 22.88357 16.36883 -5.72115 -10.93033 -19.40689 -5.44942 -1.01498 6.34485 -7.00531 -3.1495 0.03108 -7.96473 10.1471 5.95348 5.40515
0.2064 0.57493 0.34573 126.06214 0 -2.25695 5.84385 1.60517 6.67419 -24.68148 -5.227 0.95595 169.88199 -118.44557 64.17126 5.32851 127.19163 85.31533 -22.98392 169.88197 118.75274 -64.17113 5.32856 -127.83201 85.46037 23.18179 16.42251 -5.80024 -12.29878 -19.55066 -5.75459 -1.09917 6.08083 -6.92402 -3.10451 0.05654 -8.08445 10.11759 5.83605 5.2463
0.20591 0.57507 0.34609 126.36372 0 -2.30913 6.08957 1.61102 7.1852 -25.12285 -5.23788 1.33144 169.88199 -115.38941 64.17127 5.32851 126.8962 85.30858 -22.95452 169.88197 116.98909 -64.17111 5.32856 -127.71021 85.11222 22.67568 16.44707 -5.90068 -13.82407 -19.65309 -6.00936 -1.18769 5.75178 -6.85125 -3.07009 0.06851 -8.18648 10.09494 5.69663 5.04871
0.20533 0.57511 0.34652 126.76515 0 -2.3237 6.33635 1.54347 7.44311 -25.49266 -5.12896 1.67732 169.88199 -113.21737 64.17127 5.32851 127.07784 85.31961 -23.00153 169.88197 116.0738 -64.17114 5.32856 -125.21801 83.26023 19.82019 16.37695 -6.05691 -15.75715 -19.62317 -6.12376 -1.28155 5.27224 -6.80177 -3.05953 0.03269 -8.24257 10.09317 5.50442 4.75387
0.20471 0.57511 0.34697 127.20122 0 -2.32215 6.58303 1.44765 7.61018 -25.83382 -4.9796 2.01017 169.88199 -111.40409 64.17127 5.32851 127.38047 85.31412 -22.98036 169.88198 115.47657 -64.17117 5.32854 -121.92399 80.85399 16.1831 16.27668 -6.23435 -17.82918 -19.55052 -6.18411 -1.37893 4.72963 -6.7621 -3.06036 -0.01804 -8.27921 10.09773 5.29146 4.42221
0.2041 0.57512 0.34742 127.61776 0 -2.32542 6.82966 1.36417 7.82208 -26.18795 -4.85204 2.34994 169.88199 -109.46338 64.17127 5.32851 127.51256 85.28862 -22.86441 169.88198 114.74663 -64.1712 5.32853 -119.08395 78.69564 12.99697 16.1929 -6.40222 -19.80801 -19.50016 -6.26238 -1.475 4.21108 -6.72068 -3.05923 -0.06123 -8.32025 10.09738 5.08864 4.10917
0.20351 0.57515 0.34786 128.05029 0 -2.33881 7.07665 1.28178 8.01929 -26.54103 -4.71024 2.68546 169.88199 -107.37226 64.17127 5.32851 128.13444 85.37879 -23.25902 169.88198 113.96281 -64.17123 5.32852 -115.85912 76.55124 9.40619 16.09924 -6.57007 -21.9255 -19.43954 -6.36964 -1.571 3.7066 -6.6675 -3.04489 -0.10574 -8.38011 10.10549 4.88161 3.78641
0.20287 0.57514 0.34831 128.4583 0 -2.32766 7.32276 1.19107 8.22473 -26.88972 -4.58855 3.02551 169.88198 -105.68215 64.17126 5.32851 127.78143 85.22469 -22.59944 169.88198 113.36968 -64.17126 5.32851 -113.24753 74.24867 6.47146 16.01793 -6.74303 -23.78135 -19.38955 -6.40392 -1.66734 3.16172 -6.64109 -3.06038 -0.15219 -8.39654 10.09779 4.67881 3.4758
0.20214 0.57506 0.34878 128.78313 0 -2.25035 7.56807 1.08117 8.48345 -27.23662 -4.53081 3.39656 169.88198 -104.98154 64.17122 5.32852 124.49077 84.39635 -18.82596 169.88199 113.20793 -64.17126 5.32851 -112.53001 71.63041 5.55661 15.98261 -6.9231 -24.89621 -19.37801 -6.24211 -1.76627 2.49811 -6.68827 -3.1586 -0.19525 -8.2927 10.04194 4.49384 3.20816
